<svg width="210" height="48" viewBox="0 0 210 48" fill="none" xmlns="http://www.w3.org/2000/svg">
  <!-- Tree icon approximation from brand guidelines -->
  <g transform="translate(2, 2) scale(0.58)">
    <!-- Overlapping circles (Pilkhan tree canopy) -->
    <circle cx="38" cy="24" r="24" fill="#1a4db5" opacity="0.85"/>
    <circle cx="28" cy="36" r="20" fill="#0DA88F" opacity="0.7"/>
    <circle cx="48" cy="36" r="20" fill="#FC8533" opacity="0.6"/>
    <circle cx="38" cy="16" r="18" fill="#52C2FF" opacity="0.7"/>
    <circle cx="22" cy="24" r="15" fill="#6BC791" opacity="0.65"/>
    <circle cx="54" cy="24" r="15" fill="#F56969" opacity="0.55"/>
    <circle cx="38" cy="42" r="15" fill="#FFB83D" opacity="0.55"/>
    <!-- Tree trunk and branches (white) -->
    <g stroke="#fff" stroke-width="2.5" stroke-linecap="round" fill="none">
      <path d="M38 62 L38 30"/>
      <path d="M38 38 L28 26"/>
      <path d="M38 34 L48 24"/>
      <path d="M38 42 L30 34"/>
      <path d="M38 40 L46 32"/>
      <path d="M28 26 L22 18"/>
      <path d="M48 24 L54 16"/>
    </g>
  </g>

  <!-- Text -->
  <text x="52" y="16" font-family="'Inter', 'Helvetica Neue', Arial, sans-serif" font-weight="800" font-size="13.5" fill="#FFFFFF" letter-spacing="0.6">BML MUNJAL</text>
  <text x="52" y="32" font-family="'Inter', 'Helvetica Neue', Arial, sans-serif" font-weight="800" font-size="13.5" fill="#FFFFFF" letter-spacing="0.6">UNIVERSITY</text>
  <text x="142" y="32" font-family="'Inter', sans-serif" font-weight="500" font-size="6" fill="rgba(255,255,255,0.45)">™</text>
  <text x="52" y="44" font-family="'Inter', 'Helvetica Neue', Arial, sans-serif" font-weight="600" font-size="6" fill="rgba(255,255,255,0.45)" letter-spacing="1">A HERO GROUP INITIATIVE</text>
</svg>
