<svg width="1200" height="1200" viewBox="0 0 1200 1200" fill="none" xmlns="http://www.w3.org/2000/svg">
<path fill-rule="evenodd" clip-rule="evenodd" d="M523.907 424.94L428.453 260.234L370.828 359.667L408.657 424.94L466.066 524H466.27H581.317L656.95 524L714.359 424.94H523.907Z" fill="#0046D7"></path>
<path fill-rule="evenodd" clip-rule="evenodd" d="M618.639 259.062H427.418L428.129 260.25L523.469 424.759L523.583 424.955H714.035L714.408 424.312L619.068 259.803L618.639 259.062Z" fill="#CF0003"></path>
<path fill-rule="evenodd" clip-rule="evenodd" d="M427.41 259.06H428.786L618.607 259.06L714.377 424.31L714.749 424.953H830L772.002 324.877L733.858 259.06L676.662 160.369L676.448 160L561.198 160H486.196H370L427.41 259.06Z" fill="#FF6A00"></path>
<path d="M268.8 786H237.84V684.24H218.4V662.16H237.84V651.36C237.84 625.44 248.64 613.92 275.28 613.92C280.8 613.92 290.64 614.64 295.68 615.12V636L282.72 635.76C272.88 635.76 268.8 640.56 268.8 650.16V662.16H295.68V684.24H268.8V786ZM340.215 786H309.255V662.16H340.215V786ZM324.855 643.68C313.335 643.68 306.855 636.72 306.855 627.6C306.855 618.48 313.335 611.52 324.855 611.52C336.375 611.52 342.615 618.48 342.615 627.6C342.615 636.72 336.375 643.68 324.855 643.68ZM470.212 786H439.253V710.16C439.253 693.36 433.252 684.96 418.133 684.96C401.813 684.96 391.253 696.72 391.253 716.88V786H360.292V662.16H389.812V682.32C396.533 669.12 407.573 659.76 427.732 659.76C456.052 659.76 470.212 674.16 470.212 704.16V786ZM539.994 788.4C506.634 788.4 485.514 764.64 485.514 724.08C485.514 683.52 506.634 659.76 539.994 659.76C558.714 659.76 571.194 667.44 578.154 680.88V615.12H609.114V786H579.594V764.88C572.874 779.28 560.634 788.4 539.994 788.4ZM547.194 764.88C565.674 764.88 578.154 752.4 578.154 724.08C578.154 695.76 565.674 683.28 547.194 683.28C528.954 683.28 516.474 695.76 516.474 724.08C516.474 752.4 528.954 764.88 547.194 764.88Z" fill="black"></path>
<path d="M839.48 786H804.2V710.4C804.2 695.76 799.16 689.28 789.32 689.28C778.28 689.28 768.92 698.16 768.92 715.68V786H733.88V710.4C733.88 695.76 728.6 689.28 719 689.28C707.72 689.28 698.6 698.16 698.6 715.68V786H663.56V662.16H698.36V680.88C704.6 668.88 714.2 659.76 731 659.76C748.76 659.76 760.28 666.72 765.8 681.36C772.04 668.64 783.8 659.76 800.6 659.76C826.28 659.76 839.48 674.16 839.48 704.16V786ZM854.09 833.04V807.36H867.77C880.49 807.36 886.97 801.84 886.97 791.04C886.97 786.72 886.01 781.68 883.85 775.68L842.81 662.16H880.97L909.53 758.16L938.09 662.16H976.25L935.21 775.68C919.37 819.6 901.61 833.04 867.77 833.04H854.09Z" fill="#FF6A00"></path>
<path d="M284.64 1014.4C245.04 1014.4 222.48 989.2 222.48 950.08C222.48 911.2 245.04 885.76 284.64 885.76C324.72 885.76 342.96 910.96 342.96 935.2H313.92C311.76 920.56 303.36 909.28 284.64 909.28C264.96 909.28 253.44 922.72 253.44 950.08C253.44 977.44 264.96 990.88 284.64 990.88C300.96 990.88 311.52 982.48 313.92 964H342.96C342.96 990.64 323.28 1014.4 284.64 1014.4ZM413.976 1014.4C373.656 1014.4 351.096 989.2 351.096 950.08C351.096 911.2 373.656 885.76 413.976 885.76C454.536 885.76 477.096 911.2 477.096 950.08C477.096 989.2 454.536 1014.4 413.976 1014.4ZM413.976 990.88C434.616 990.88 446.136 977.44 446.136 950.08C446.136 922.72 434.616 909.28 413.976 909.28C393.576 909.28 382.056 922.72 382.056 950.08C382.056 977.44 393.576 990.88 413.976 990.88ZM523.44 1012H492.48V841.12H523.44V1012ZM574.477 1012H543.517V841.12H574.477V1012ZM652.635 1014.4C612.315 1014.4 589.755 989.2 589.755 950.08C589.755 911.92 611.355 885.76 651.195 885.76C691.275 885.76 712.875 912.16 712.875 948.64C712.875 951.28 712.635 953.68 712.395 956.56H620.715C621.675 981.76 633.675 993.28 652.635 993.28C667.995 993.28 678.075 985.6 681.675 972.88H710.235C704.955 998.32 685.995 1014.4 652.635 1014.4ZM651.195 906.88C634.155 906.88 623.355 916.72 620.715 936.4H681.915C679.275 916.72 668.235 906.88 651.195 906.88ZM778.007 1007.2C744.647 1007.2 723.527 982.96 723.527 946.48C723.527 910 744.647 885.76 778.007 885.76C798.647 885.76 810.887 894.88 817.607 909.28V888.16H847.127V1001.92C847.127 1040.32 826.487 1061.44 785.927 1061.44C748.727 1061.44 730.247 1043.68 730.247 1017.04H759.287C761.207 1032.64 770.567 1041.04 787.367 1041.04C805.607 1041.04 816.167 1031.2 816.167 1010.56V986.08C809.207 999.52 796.727 1007.2 778.007 1007.2ZM785.207 985.12C803.687 985.12 816.167 972.16 816.167 946.48C816.167 920.8 803.687 907.84 785.207 907.84C766.967 907.84 754.487 920.8 754.487 946.48C754.487 972.16 766.967 985.12 785.207 985.12ZM925.335 1014.4C885.015 1014.4 862.455 989.2 862.455 950.08C862.455 911.92 884.055 885.76 923.895 885.76C963.975 885.76 985.575 912.16 985.575 948.64C985.575 951.28 985.335 953.68 985.095 956.56H893.415C894.375 981.76 906.375 993.28 925.335 993.28C940.695 993.28 950.775 985.6 954.375 972.88H982.935C977.655 998.32 958.695 1014.4 925.335 1014.4ZM923.895 906.88C906.855 906.88 896.055 916.72 893.415 936.4H954.615C951.975 916.72 940.935 906.88 923.895 906.88Z" fill="black"></path>
</svg>