<svg width="3346" height="788" viewBox="0 0 3346 788" fill="none" xmlns="http://www.w3.org/2000/svg">
<path fill-rule="evenodd" clip-rule="evenodd" d="M393.903 464.94L298.45 300.234L240.824 399.667L278.653 464.94L336.062 564H336.266H451.313L526.946 564L584.355 464.94H393.903Z" fill="#044BDD"></path>
<path fill-rule="evenodd" clip-rule="evenodd" d="M488.639 299.062H297.418L298.129 300.25L393.469 464.759L393.583 464.955H584.035L584.408 464.312L489.068 299.803L488.639 299.062Z" fill="#CF0003"></path>
<path fill-rule="evenodd" clip-rule="evenodd" d="M297.41 299.06H298.786L488.607 299.06L584.377 464.31L584.749 464.953H700L642.002 364.877L603.858 299.06L546.662 200.369L546.448 200L431.198 200H356.196H240L297.41 299.06Z" fill="#FF6A00"></path>
<path d="M882.192 509H836.343V358.303H807.554V325.604H836.343V309.61C836.343 271.225 852.337 254.165 891.788 254.165C899.963 254.165 914.535 255.231 921.999 255.942V286.864L902.806 286.508C888.234 286.508 882.192 293.617 882.192 307.833V325.604H921.999V358.303H882.192V509ZM987.951 509H942.102V325.604H987.951V509ZM965.204 298.237C948.144 298.237 938.548 287.93 938.548 274.424C938.548 260.918 948.144 250.611 965.204 250.611C982.264 250.611 991.505 260.918 991.505 274.424C991.505 287.93 982.264 298.237 965.204 298.237ZM1180.47 509H1134.62V396.688C1134.62 371.809 1125.73 359.369 1103.34 359.369C1079.17 359.369 1063.53 376.784 1063.53 406.64V509H1017.68V325.604H1061.4V355.459C1071.35 335.911 1087.7 322.05 1117.56 322.05C1159.5 322.05 1180.47 343.375 1180.47 387.802V509ZM1283.81 512.554C1234.4 512.554 1203.13 477.368 1203.13 417.302C1203.13 357.236 1234.4 322.05 1283.81 322.05C1311.53 322.05 1330.01 333.423 1340.32 353.327V255.942H1386.17V509H1342.45V477.723C1332.5 499.048 1314.37 512.554 1283.81 512.554ZM1294.47 477.723C1321.84 477.723 1340.32 459.241 1340.32 417.302C1340.32 375.363 1321.84 356.881 1294.47 356.881C1267.46 356.881 1248.98 375.363 1248.98 417.302C1248.98 459.241 1267.46 477.723 1294.47 477.723Z" fill="black"></path>
<path d="M1723.16 509H1670.91V397.043C1670.91 375.363 1663.45 365.767 1648.88 365.767C1632.53 365.767 1618.67 378.917 1618.67 404.863V509H1566.78V397.043C1566.78 375.363 1558.96 365.767 1544.74 365.767C1528.04 365.767 1514.53 378.917 1514.53 404.863V509H1462.64V325.604H1514.17V353.327C1523.41 335.556 1537.63 322.05 1562.51 322.05C1588.81 322.05 1605.87 332.357 1614.05 354.038C1623.29 335.201 1640.7 322.05 1665.58 322.05C1703.61 322.05 1723.16 343.375 1723.16 387.802V509ZM1744.8 578.662V540.632H1765.05C1783.89 540.632 1793.49 532.458 1793.49 516.464C1793.49 510.066 1792.07 502.602 1788.87 493.717L1728.09 325.604H1784.6L1826.9 467.772L1869.19 325.604H1925.7L1864.93 493.717C1841.47 558.759 1815.17 578.662 1765.05 578.662H1744.8Z" fill="#FF6A00"></path>
<path d="M2073.65 512.554C2015.01 512.554 1981.6 475.235 1981.6 417.302C1981.6 359.724 2015.01 322.05 2073.65 322.05C2133 322.05 2160.02 359.369 2160.02 395.266H2117.01C2113.81 373.586 2101.37 356.881 2073.65 356.881C2044.51 356.881 2027.45 376.784 2027.45 417.302C2027.45 457.82 2044.51 477.723 2073.65 477.723C2097.82 477.723 2113.46 465.284 2117.01 437.916H2160.02C2160.02 477.368 2130.87 512.554 2073.65 512.554ZM2265.18 512.554C2205.47 512.554 2172.06 475.235 2172.06 417.302C2172.06 359.724 2205.47 322.05 2265.18 322.05C2325.25 322.05 2358.66 359.724 2358.66 417.302C2358.66 475.235 2325.25 512.554 2265.18 512.554ZM2265.18 477.723C2295.75 477.723 2312.81 457.82 2312.81 417.302C2312.81 376.784 2295.75 356.881 2265.18 356.881C2234.97 356.881 2217.91 376.784 2217.91 417.302C2217.91 457.82 2234.97 477.723 2265.18 477.723ZM2427.29 509H2381.44V255.942H2427.29V509ZM2502.87 509H2457.02V255.942H2502.87V509ZM2618.62 512.554C2558.91 512.554 2525.5 475.235 2525.5 417.302C2525.5 360.791 2557.48 322.05 2616.48 322.05C2675.84 322.05 2707.83 361.146 2707.83 415.17C2707.83 419.079 2707.47 422.633 2707.12 426.898H2571.35C2572.77 464.217 2590.54 481.277 2618.62 481.277C2641.36 481.277 2656.29 469.904 2661.62 451.067H2703.92C2696.1 488.741 2668.02 512.554 2618.62 512.554ZM2616.48 353.327C2591.25 353.327 2575.26 367.899 2571.35 397.043H2661.98C2658.07 367.899 2641.72 353.327 2616.48 353.327ZM2804.28 501.892C2754.88 501.892 2723.6 465.994 2723.6 411.971C2723.6 357.947 2754.88 322.05 2804.28 322.05C2834.85 322.05 2852.97 335.556 2862.92 356.881V325.604H2906.64V494.072C2906.64 550.939 2876.08 582.216 2816.01 582.216C2760.92 582.216 2733.55 555.915 2733.55 516.464H2776.56C2779.4 539.566 2793.26 552.006 2818.14 552.006C2845.15 552.006 2860.79 537.433 2860.79 506.867V470.615C2850.49 490.518 2832 501.892 2804.28 501.892ZM2814.94 469.193C2842.31 469.193 2860.79 450.001 2860.79 411.971C2860.79 373.941 2842.31 354.749 2814.94 354.749C2787.93 354.749 2769.45 373.941 2769.45 411.971C2769.45 450.001 2787.93 469.193 2814.94 469.193ZM3022.46 512.554C2962.75 512.554 2929.34 475.235 2929.34 417.302C2929.34 360.791 2961.33 322.05 3020.33 322.05C3079.68 322.05 3111.67 361.146 3111.67 415.17C3111.67 419.079 3111.31 422.633 3110.96 426.898H2975.19C2976.61 464.217 2994.38 481.277 3022.46 481.277C3045.21 481.277 3060.13 469.904 3065.47 451.067H3107.76C3099.94 488.741 3071.86 512.554 3022.46 512.554ZM3020.33 353.327C2995.09 353.327 2979.1 367.899 2975.19 397.043H3065.82C3061.91 367.899 3045.56 353.327 3020.33 353.327Z" fill="black"></path>
</svg>