<svg width="2782" height="758" viewBox="0 0 2782 758" fill="none" xmlns="http://www.w3.org/2000/svg">
<path d="M318.192 494H272.343V343.303H243.554V310.604H272.343V294.61C272.343 256.225 288.337 239.165 327.788 239.165C335.963 239.165 350.535 240.231 357.999 240.942V271.864L338.806 271.508C324.234 271.508 318.192 278.617 318.192 292.833V310.604H357.999V343.303H318.192V494ZM423.951 494H378.102V310.604H423.951V494ZM401.204 283.237C384.144 283.237 374.548 272.93 374.548 259.424C374.548 245.918 384.144 235.611 401.204 235.611C418.264 235.611 427.505 245.918 427.505 259.424C427.505 272.93 418.264 283.237 401.204 283.237ZM616.465 494H570.617V381.688C570.617 356.809 561.731 344.369 539.34 344.369C515.171 344.369 499.533 361.784 499.533 391.64V494H453.684V310.604H497.4V340.459C507.352 320.911 523.701 307.05 553.556 307.05C595.496 307.05 616.465 328.375 616.465 372.802V494ZM719.806 497.554C670.403 497.554 639.126 462.368 639.126 402.302C639.126 342.236 670.403 307.05 719.806 307.05C747.529 307.05 766.01 318.423 776.318 338.327V240.942H822.166V494H778.45V462.723C768.498 484.048 750.372 497.554 719.806 497.554ZM730.469 462.723C757.836 462.723 776.318 444.241 776.318 402.302C776.318 360.363 757.836 341.881 730.469 341.881C703.457 341.881 684.975 360.363 684.975 402.302C684.975 444.241 703.457 462.723 730.469 462.723Z" fill="white"></path>
<path d="M1159.16 494H1106.91V382.043C1106.91 360.363 1099.45 350.767 1084.88 350.767C1068.53 350.767 1054.67 363.917 1054.67 389.863V494H1002.78V382.043C1002.78 360.363 994.957 350.767 980.74 350.767C964.035 350.767 950.529 363.917 950.529 389.863V494H898.638V310.604H950.174V338.327C959.415 320.556 973.632 307.05 998.511 307.05C1024.81 307.05 1041.87 317.357 1050.05 339.038C1059.29 320.201 1076.7 307.05 1101.58 307.05C1139.61 307.05 1159.16 328.375 1159.16 372.802V494ZM1180.8 563.662V525.632H1201.05C1219.89 525.632 1229.49 517.458 1229.49 501.464C1229.49 495.066 1228.07 487.602 1224.87 478.717L1164.09 310.604H1220.6L1262.9 452.772L1305.19 310.604H1361.7L1300.93 478.717C1277.47 543.759 1251.17 563.662 1201.05 563.662H1180.8Z" fill="#FF6A00"></path>
<path d="M1509.65 497.554C1451.01 497.554 1417.6 460.235 1417.6 402.302C1417.6 344.724 1451.01 307.05 1509.65 307.05C1569 307.05 1596.02 344.369 1596.02 380.266H1553.01C1549.81 358.586 1537.37 341.881 1509.65 341.881C1480.51 341.881 1463.45 361.784 1463.45 402.302C1463.45 442.82 1480.51 462.723 1509.65 462.723C1533.82 462.723 1549.46 450.284 1553.01 422.916H1596.02C1596.02 462.368 1566.87 497.554 1509.65 497.554ZM1701.18 497.554C1641.47 497.554 1608.06 460.235 1608.06 402.302C1608.06 344.724 1641.47 307.05 1701.18 307.05C1761.25 307.05 1794.66 344.724 1794.66 402.302C1794.66 460.235 1761.25 497.554 1701.18 497.554ZM1701.18 462.723C1731.75 462.723 1748.81 442.82 1748.81 402.302C1748.81 361.784 1731.75 341.881 1701.18 341.881C1670.97 341.881 1653.91 361.784 1653.91 402.302C1653.91 442.82 1670.97 462.723 1701.18 462.723ZM1863.29 494H1817.44V240.942H1863.29V494ZM1938.87 494H1893.02V240.942H1938.87V494ZM2054.62 497.554C1994.91 497.554 1961.5 460.235 1961.5 402.302C1961.5 345.791 1993.48 307.05 2052.48 307.05C2111.84 307.05 2143.83 346.146 2143.83 400.17C2143.83 404.079 2143.47 407.633 2143.12 411.898H2007.35C2008.77 449.217 2026.54 466.277 2054.62 466.277C2077.36 466.277 2092.29 454.904 2097.62 436.067H2139.92C2132.1 473.741 2104.02 497.554 2054.62 497.554ZM2052.48 338.327C2027.25 338.327 2011.26 352.899 2007.35 382.043H2097.98C2094.07 352.899 2077.72 338.327 2052.48 338.327ZM2240.28 486.892C2190.88 486.892 2159.6 450.994 2159.6 396.971C2159.6 342.947 2190.88 307.05 2240.28 307.05C2270.85 307.05 2288.97 320.556 2298.92 341.881V310.604H2342.64V479.072C2342.64 535.939 2312.08 567.216 2252.01 567.216C2196.92 567.216 2169.55 540.915 2169.55 501.464H2212.56C2215.4 524.566 2229.26 537.006 2254.14 537.006C2281.15 537.006 2296.79 522.433 2296.79 491.867V455.615C2286.49 475.518 2268 486.892 2240.28 486.892ZM2250.94 454.193C2278.31 454.193 2296.79 435.001 2296.79 396.971C2296.79 358.941 2278.31 339.749 2250.94 339.749C2223.93 339.749 2205.45 358.941 2205.45 396.971C2205.45 435.001 2223.93 454.193 2250.94 454.193ZM2458.46 497.554C2398.75 497.554 2365.34 460.235 2365.34 402.302C2365.34 345.791 2397.33 307.05 2456.33 307.05C2515.68 307.05 2547.67 346.146 2547.67 400.17C2547.67 404.079 2547.31 407.633 2546.96 411.898H2411.19C2412.61 449.217 2430.38 466.277 2458.46 466.277C2481.21 466.277 2496.13 454.904 2501.47 436.067H2543.76C2535.94 473.741 2507.86 497.554 2458.46 497.554ZM2456.33 338.327C2431.09 338.327 2415.1 352.899 2411.19 382.043H2501.82C2497.91 352.899 2481.56 338.327 2456.33 338.327Z" fill="white"></path>
</svg>