<svg width="800" height="800" viewBox="0 0 800 800" fill="none" xmlns="http://www.w3.org/2000/svg">
<path fill-rule="evenodd" clip-rule="evenodd" d="M339.823 346.342L244.271 180.84L186.586 280.753L224.453 346.342L281.923 445.881H282.126H397.293L473.003 445.881L530.472 346.342H339.823Z" fill="#0046D7"></path>
<path fill-rule="evenodd" clip-rule="evenodd" d="M434.657 179.668H243.238L243.95 180.861L339.389 346.165L339.503 346.363H530.152L530.525 345.716L435.086 180.412L434.657 179.668Z" fill="#CF0003"></path>
<path fill-rule="evenodd" clip-rule="evenodd" d="M243.231 179.661H244.608L434.626 179.661L530.494 345.709L530.868 346.355H646.237L588.179 245.796L549.996 179.661L492.741 80.4914L492.527 80.1211L377.157 80.1211H302.078H185.762L243.231 179.661Z" fill="#FF6A00"></path>
<path d="M242.8 691.883H211.84V590.123H192.4V568.043H211.84V557.243C211.84 531.323 222.64 519.803 249.28 519.803C254.8 519.803 264.64 520.523 269.68 521.003V541.883L256.72 541.643C246.88 541.643 242.8 546.443 242.8 556.043V568.043H269.68V590.123H242.8V691.883ZM454.135 691.883H424.375V615.083C424.375 598.523 418.855 590.843 406.855 590.843C393.895 590.843 383.575 601.643 383.575 621.803V691.883H353.575V615.083C353.575 598.523 348.055 590.843 336.295 590.843C323.335 590.843 313.015 601.643 313.015 621.803V691.883H283.255V568.043H312.775V588.203C318.775 575.003 329.335 565.643 346.375 565.643C364.375 565.643 375.655 573.323 380.695 588.923C386.935 574.523 399.175 565.643 416.215 565.643C441.655 565.643 454.135 580.043 454.135 610.043V691.883ZM531.574 694.283C491.974 694.283 469.414 669.083 469.414 629.963C469.414 591.083 491.974 565.643 531.574 565.643C571.654 565.643 589.894 590.843 589.894 615.083H560.854C558.694 600.443 550.294 589.163 531.574 589.163C511.894 589.163 500.374 602.603 500.374 629.963C500.374 657.323 511.894 670.763 531.574 670.763C547.894 670.763 558.454 662.363 560.854 643.883H589.894C589.894 670.523 570.214 694.283 531.574 694.283Z" fill="black"></path>
</svg>